<svg xmlns="http://www.w3.org/2000/svg" viewBox="0 0 32 32" fill="none">
  <!-- Background circle -->
  <circle cx="16" cy="16" r="16" fill="#16a34a"/>

  <!-- Leaf shape -->
  <path d="M16 6
    C16 6 24 10 24 18
    C24 22.4 20.4 26 16 26
    C11.6 26 8 22.4 8 18
    C8 10 16 6 16 6Z"
    fill="#bbf7d0"/>

  <!-- Center vein -->
  <path d="M16 24 L16 10" stroke="#16a34a" stroke-width="1.5" stroke-linecap="round"/>

  <!-- Left veins -->
  <path d="M16 20 C13 19 11 17 10 15" stroke="#16a34a" stroke-width="1" stroke-linecap="round"/>
  <path d="M16 16 C13 15 11.5 13 11 11" stroke="#16a34a" stroke-width="1" stroke-linecap="round"/>

  <!-- Right veins -->
  <path d="M16 20 C19 19 21 17 22 15" stroke="#16a34a" stroke-width="1" stroke-linecap="round"/>
  <path d="M16 16 C19 15 20.5 13 21 11" stroke="#16a34a" stroke-width="1" stroke-linecap="round"/>

  <!-- Small stem -->
  <path d="M16 26 C15 27.5 13.5 28 12 28" stroke="#bbf7d0" stroke-width="1.5" stroke-linecap="round" fill="none"/>
</svg>
